<?xml version="1.0" encoding="UTF-8"?>
<svg width="20px" height="20px" viewBox="0 0 20 20" version="1.1" xmlns="http://www.w3.org/2000/svg" xmlns:xlink="http://www.w3.org/1999/xlink">
    <!-- Generator: Sketch 52.5 (67469) - http://www.bohemiancoding.com/sketch -->
    <title>top_ico_edit_slice</title>
    <desc>Created with Sketch.</desc>
    <g id="Page-1" stroke="none" stroke-width="1" fill="none" fill-rule="evenodd">
        <g id="画板" transform="translate(-11.000000, -1.000000)" fill="#23374D" fill-rule="nonzero">
            <g id="top_ico_edit" transform="translate(14.000000, 4.000000)">
                <path d="M9.63995187,2.30806258 L11.7037304,4.37015644 L11.0163658,5.05752106 L8.95258724,2.99374248 L9.63995187,2.30806258 Z M2.76293622,9.18170878 L4.8267148,11.2438026 L4.13935018,11.9311673 L2.0755716,9.86907341 L2.76293622,9.18170878 Z M9.63826715,0.933333333 C10.0038508,0.567749699 10.4991576,0.3622142 11.0163658,0.3622142 C11.533574,0.3622142 12.0288809,0.567749699 12.3944645,0.935018051 L13.076775,1.6156438 C13.8365824,2.37713598 13.8365824,3.60866426 13.0784597,4.37015644 L4.55042118,12.8948255 L0.353790614,13.6512635 L1.11022864,9.45631769 L9.63826715,0.933333333 Z M4.22358604,11.8452467 L12.4028881,3.67268351 C12.7752106,3.29867629 12.7718412,2.68375451 12.3910951,2.30469314 L11.7087846,1.62406739 C11.3246691,1.23995187 10.7148014,1.23658243 10.3391095,1.61227437 L2.15980746,9.78652226 L1.73020457,12.2799037 L4.22358604,11.8452467 Z" id="形状"></path>
                <path d="M12.974503,10.3655948 L10.3222861,7.6435857 L11.0634809,6.973035 L13.7523228,9.65682276 C13.9401468,9.84464667 14.0449458,10.098223 14.0449458,10.3643803 C14.0449458,10.6305375 13.9401468,10.8841139 13.7523228,11.0719378 L11.0668836,13.757377 C10.8790597,13.9452009 10.6254833,14.05 10.3593261,14.05 C10.0931689,14.05 9.83959252,13.9452009 9.65176861,13.757377 L6.9663886,11.001168 L9.05364655,8.99135946 L9.724164,9.73258759 L8.38144439,11.0045965 L8.98125116,11.675114 L10.3946815,10.3323944 L11.0651989,11.0736225 L9.72247929,12.3456314 L10.3222971,13.0161378 L12.974503,10.3655948 Z" id="路径" stroke="#23374D" stroke-width="0.1"></path>
                <path d="M2.97352587,0.294825511 L0.286401925,2.98026474 C0.107821901,3.15884477 0.00842358604,3.39975933 0.00842358604,3.65246691 C0.00842358604,3.90517449 0.109506619,4.14608905 0.286401925,4.32466907 L2.97352587,7.00842359 L4.98676294,4.99518652 L4.31624549,4.32466907 L2.97352587,5.66738869 L2.30300842,4.99687124 L3.64572804,3.65415162 L2.97521059,2.98194946 L1.63249097,4.32466907 L0.960288809,3.65583634 L3.64572804,0.968712395 L6.32948255,3.65246691 L7,2.98194946 L4.31456077,0.293140794 C4.13766546,0.11456077 3.89506619,0.0151624549 3.64404332,0.0151624549 C3.39302046,0.0151624549 3.1521059,0.116245487 2.97352587,0.294825511 Z" id="路径" stroke="#23374D" stroke-width="0.1"></path>
            </g>
        </g>
    </g>
</svg>