<?xml version="1.0" encoding="UTF-8"?>
<svg width="20px" height="20px" viewBox="0 0 20 20" version="1.1" xmlns="http://www.w3.org/2000/svg" xmlns:xlink="http://www.w3.org/1999/xlink">
    <!-- Generator: Sketch 52.5 (67469) - http://www.bohemiancoding.com/sketch -->
    <title>floor_slice</title>
    <desc>Created with Sketch.</desc>
    <g id="Page-1" stroke="none" stroke-width="1" fill="none" fill-rule="evenodd">
        <g id="画板" transform="translate(-5.000000, -5.000000)" fill="#23374D">
            <g id="floor" transform="translate(8.000000, 9.000000)">
                <path d="M1.90907589,0 L6.99994494,0 C7.70284728,4.27127643e-17 8.27266221,0.56547793 8.27266221,1.26303031 L8.27266221,11.3672727 L0.636358627,11.3672727 L0.636358627,1.26303031 C0.636358627,0.56547793 1.20617356,1.28138293e-16 1.90907589,0 Z M3.18179316,2.5260606 C2.83034199,2.5260606 2.54543452,2.80879957 2.54543452,3.15757576 C2.54543452,3.50635194 2.83034199,3.78909091 3.18179316,3.78909091 L5.72722768,3.78909091 C5.95457672,3.78909091 6.16465591,3.66872481 6.27833043,3.47333334 C6.39200495,3.27794187 6.39200495,3.03720965 6.27833043,2.84181818 C6.16465591,2.6464267 5.95457672,2.5260606 5.72722768,2.5260606 L3.18179316,2.5260606 Z M3.18179316,5.05212122 C2.83034199,5.05212122 2.54543452,5.33486018 2.54543452,5.68363637 C2.54543452,6.03241256 2.83034199,6.31515152 3.18179316,6.31515152 L5.72722768,6.31515152 C6.07867884,6.31515152 6.36358631,6.03241256 6.36358631,5.68363637 C6.36358631,5.33486018 6.07867884,5.05212122 5.72722768,5.05212122 L3.18179316,5.05212122 Z M3.18179316,7.57818182 C2.83034199,7.57818182 2.54543452,7.86092078 2.54543452,8.20969697 C2.54543452,8.55847316 2.83034199,8.84121213 3.18179316,8.84121213 L5.72722768,8.84121213 C6.07867884,8.84121213 6.36358631,8.55847316 6.36358631,8.20969697 C6.36358631,7.86092078 6.07867884,7.57818182 5.72722768,7.57818182 L3.18179316,7.57818182 Z M9.74646879,4.06632606 L12.2919033,4.90813576 C12.551883,4.99406725 12.7272386,5.23550853 12.7271726,5.50744364 L12.7271726,11.3672727 L8.90902083,11.3672727 L8.90902083,4.66500242 C8.90917602,4.46211731 9.00754552,4.27166051 9.17342791,4.1530742 C9.33931029,4.0344879 9.55250332,4.00221429 9.74646879,4.06632606 Z" id="形状" fill-rule="nonzero"></path>
                <path d="M0.636358627,10.7357576 L13.3635312,10.7357576 C13.7877703,10.7357576 13.9998899,10.9462626 13.9998899,11.3672727 C13.9998899,11.7882828 13.7877703,11.9987879 13.3635312,11.9987879 L0.636358627,11.9987879 C0.212119542,11.9987879 -7.10542736e-14,11.7882828 -7.10542736e-14,11.3672727 C-7.10542736e-14,10.9462626 0.212119542,10.7357576 0.636358627,10.7357576 Z" id="路径"></path>
            </g>
        </g>
    </g>
</svg>