<?xml version="1.0" encoding="UTF-8"?>
<svg width="20px" height="20px" viewBox="0 0 20 20" version="1.1" xmlns="http://www.w3.org/2000/svg" xmlns:xlink="http://www.w3.org/1999/xlink">
    <!-- Generator: Sketch 52.5 (67469) - http://www.bohemiancoding.com/sketch -->
    <title>setup_slice</title>
    <desc>Created with Sketch.</desc>
    <g id="Page-1" stroke="none" stroke-width="1" fill="none" fill-rule="evenodd">
        <g id="画板" transform="translate(-12.000000, -12.000000)">
            <g id="setup" transform="translate(12.000000, 12.000000)">
                <rect id="Selected-Copy" fill="#4BCA81" x="0" y="0" width="20" height="20"></rect>
                <g transform="translate(6.000000, 6.666667)" fill="#FFFFFF">
                    <path d="M4.36244898,6.46071133 C4.29387755,6.62696443 4.10530612,6.7063689 3.94122449,6.63688999 L0.204897959,5.06451613 C0.0408163265,4.99503722 -0.0375510204,4.80397022 0.0310204082,4.63771712 C0.0995918367,4.47146402 0.288163265,4.39205955 0.452244898,4.46153846 L4.1877551,6.03473945 C4.35265306,6.1025641 4.43102041,6.29445823 4.36244898,6.46071133 Z" id="路径"></path>
                    <path d="M3.77061224,6.45905707 C3.83918367,6.62531017 4.0277551,6.70471464 4.19183673,6.63523573 L7.8,5.11579818 C7.96408163,5.04631927 8.04244898,4.85525227 7.97387755,4.68899917 C7.90530612,4.52274607 7.71673469,4.4433416 7.55265306,4.51282051 L3.9444898,6.03225806 C3.78040816,6.10173697 3.70204082,6.29280397 3.77061224,6.45905707 Z M4.36244898,5.05459057 C4.29387755,5.22084367 4.10530612,5.30024814 3.94122449,5.23076923 L0.204897959,3.65839537 C0.0408163265,3.58891646 -0.0375510204,3.39784946 0.0310204082,3.23159636 C0.0995918367,3.06534326 0.288163265,2.98593879 0.452244898,3.0554177 L4.1877551,4.62861869 C4.35265306,4.69644334 4.43102041,4.88833747 4.36244898,5.05459057 Z" id="形状" fill-rule="nonzero"></path>
                    <path d="M3.77061224,5.05293631 C3.83918367,5.21918941 4.0277551,5.29859388 4.19183673,5.22911497 L7.8,3.70967742 C7.96408163,3.64019851 8.04244898,3.44913151 7.97387755,3.28287841 C7.90530612,3.11662531 7.71673469,3.03722084 7.55265306,3.10669975 L3.9444898,4.6261373 C3.78040816,4.69561621 3.70204082,4.88668321 3.77061224,5.05293631 Z M7.97959184,1.79239041 C7.95020408,1.70802316 7.88734694,1.63606286 7.79918367,1.59884202 L4.06367347,0.0256410256 C4.02204082,0.00827129859 3.97877551,-5.64728386e-15 3.93632653,0.000827129859 C3.89387755,-5.64728386e-15 3.85061224,0.00827129859 3.80897959,0.0256410256 L0.207346939,1.54177006 C0.111836735,1.58147229 0.0457142857,1.66253102 0.0204081633,1.75599669 C0.0195918367,1.75765095 0.0195918367,1.76013234 0.0187755102,1.7617866 L0.0187755102,1.76261373 C-0.0244897959,1.91894127 0.053877551,2.08767577 0.205714286,2.15136476 L3.94122449,3.72456576 C4.0244898,3.75930521 4.11428571,3.75682382 4.19102041,3.72373863 L4.19183673,3.72373863 L7.8,2.20430108 C7.96,2.13730356 8.03836735,1.95533499 7.97959184,1.79239041 Z" id="形状" fill-rule="nonzero"></path>
                </g>
            </g>
        </g>
    </g>
</svg>