<?xml version="1.0" encoding="UTF-8"?>
<svg width="20px" height="20px" viewBox="0 0 20 20" version="1.1" xmlns="http://www.w3.org/2000/svg" xmlns:xlink="http://www.w3.org/1999/xlink">
    <!-- Generator: Sketch 52.5 (67469) - http://www.bohemiancoding.com/sketch -->
    <title>top_ico_my_slice</title>
    <desc>Created with Sketch.</desc>
    <g id="Page-1" stroke="none" stroke-width="1" fill="none" fill-rule="evenodd">
        <g id="画板" transform="translate(-11.000000, -1.000000)" fill="#23374D" fill-rule="nonzero">
            <g id="top_ico_my" transform="translate(14.000000, 4.000000)">
                <path d="M7.01631702,7.33807119 L6.99960839,7.33807119 C5.06140793,7.33807119 3.48244289,5.69138531 3.48244289,3.67005661 C3.48244289,1.6487279 5.06140793,0.00204202118 6.99960839,0.00204202118 L7.01631702,0.00204202118 C8.95451748,0.00204202118 10.5334825,1.6487279 10.5334825,3.67005661 C10.5334825,5.69138531 8.95451748,7.33807119 7.01631702,7.33807119 Z" id="形状"></path>
                <path d="M6.99125408,0.838453898 C5.48747786,0.838453898 4.26774825,2.11049696 4.26774825,3.67876923 C4.26774825,5.2470415 5.48747786,6.51908456 6.99125408,6.51908456 L7.0079627,6.51908456 C8.51173893,6.51908456 9.73146853,5.2470415 9.73146853,3.67876923 C9.73146853,2.11049696 8.51173893,0.838453898 7.01631702,0.838453898 L6.99125408,0.838453898 Z" id="路径"></path>
                <path d="M13.3321772,9.07532558 C12.4132028,7.94268449 10.8175291,7.63774266 9.53931935,8.35217781 C8.94616317,8.68325751 8.02718881,9.0840382 6.99960839,9.0840382 C5.97202797,9.0840382 5.05305361,8.68325751 4.45989744,8.35217781 C3.18168765,7.63774266 1.58601399,7.93397187 0.667039627,9.07532558 C0.240969697,9.60679562 0.00704895105,10.2341045 0.00704895105,10.8962639 C0.00704895105,12.6039382 1.56930536,13.997958 3.48244289,13.997958 L10.5084196,13.997958 C12.4215571,13.997958 13.9838135,12.6039382 13.9838135,10.8962639 C13.9921678,10.2341045 13.7666014,9.60679562 13.3321772,9.07532558 Z M10.491711,13.1528335 L3.51586014,13.1528335 C2.04550117,13.1528335 0.850834499,12.1421691 0.850834499,10.8962639 C0.850834499,10.4344949 1.00956643,9.99886369 1.31867599,9.62422087 C1.74474592,9.10146345 2.37131935,8.81394687 3.0146014,8.81394687 C3.38219114,8.81394687 3.7581352,8.90978573 4.10901632,9.10146345 C4.77736131,9.47610627 5.82165035,9.92045008 7.0079627,9.92045008 C8.19427506,9.92045008 9.2385641,9.47610627 9.90690909,9.10146345 C10.8509464,8.5699934 12.0205501,8.78780899 12.6972494,9.62422087 C13.006359,9.99886369 13.1650909,10.4432075 13.1650909,10.8962639 C13.1567366,12.1421691 11.9620699,13.1528335 10.491711,13.1528335 Z" id="形状"></path>
            </g>
        </g>
    </g>
</svg>