<?xml version="1.0" encoding="UTF-8"?>
<svg width="20px" height="20px" viewBox="0 0 20 20" version="1.1" xmlns="http://www.w3.org/2000/svg" xmlns:xlink="http://www.w3.org/1999/xlink">
    <!-- Generator: Sketch 52.5 (67469) - http://www.bohemiancoding.com/sketch -->
    <title>tool_frame_slice</title>
    <desc>Created with Sketch.</desc>
    <g id="Page-1" stroke="none" stroke-width="1" fill="none" fill-rule="evenodd">
        <g id="画板" transform="translate(-15.000000, -2.000000)" fill="#476585" fill-rule="nonzero">
            <g id="tool_frame" transform="translate(19.000000, 6.000000)">
                <path d="M0.812429752,4.52969412 L0,4.52969412 L0,6.02352941 L0.812429752,6.02352941 L0.812429752,4.52969412 Z M0.812429752,6.79454118 L0,6.79454118 L0,8.28837647 L0.812429752,8.28837647 L0.812429752,6.79454118 Z M0.812429752,2.26484706 L0,2.26484706 L0,3.75868235 L0.812429752,3.75868235 L0.812429752,2.26484706 Z M10.3584793,1.49383529 L11.1709091,1.49383529 L11.1709091,0 L9.59682645,0 L9.59682645,0.771011765 L10.4092562,0.771011765 L10.4092562,1.49383529 L10.3584793,1.49383529 Z M8.78439669,0 L7.21031405,0 L7.21031405,0.771011765 L8.78439669,0.771011765 L8.78439669,0 Z M10.3584793,3.80687059 L11.1709091,3.80687059 L11.1709091,2.26484706 L10.3584793,2.26484706 L10.3584793,3.80687059 Z M2.3865124,0.771011765 L3.96059504,0.771011765 L3.96059504,0 L2.3865124,0 L2.3865124,0.771011765 Z M6.3978843,0 L4.82380165,0 L4.82380165,0.771011765 L6.3978843,0.771011765 L6.3978843,0 Z M11.9833388,6.79454118 L5.58545455,2.26484706 L5.58545455,10.6014118 L7.81963636,8.04743529 L10.3077025,11.9988706 L11.6786777,11.2278588 L9.19061157,7.27642353 L11.9833388,6.79454118 Z M2.3865124,10.6014118 L3.96059504,10.6014118 L3.96059504,9.8304 L2.3865124,9.8304 L2.3865124,10.6014118 Z M0,1.49383529 L0.812429752,1.49383529 L0.812429752,0.771011765 L1.6248595,0.771011765 L1.6248595,0 L0,0 L0,1.49383529 Z M0.812429752,9.10757647 L0,9.10757647 L0,10.6014118 L1.57408264,10.6014118 L1.57408264,9.8304 L0.812429752,9.8304 L0.812429752,9.10757647 Z" id="形状"></path>
            </g>
        </g>
    </g>
</svg>