<?xml version="1.0" encoding="UTF-8"?>
<svg width="20px" height="20px" viewBox="0 0 20 20" version="1.1" xmlns="http://www.w3.org/2000/svg" xmlns:xlink="http://www.w3.org/1999/xlink">
    <!-- Generator: Sketch 52.5 (67469) - http://www.bohemiancoding.com/sketch -->
    <title>top_ico_help_slice</title>
    <desc>Created with Sketch.</desc>
    <g id="Page-1" stroke="none" stroke-width="1" fill="none" fill-rule="evenodd">
        <g id="画板" transform="translate(-1756.000000, -19.000000)" fill="#23374D">
            <path d="M1766,37 C1761.58173,37 1758,33.4182857 1758,29 C1758,24.5817143 1761.58173,21 1766,21 C1770.41829,21 1774,24.5817143 1774,29 C1774,33.4182857 1770.41829,37 1766,37 L1766,37 Z M1766,22.1428571 C1762.21291,22.1428571 1759.14286,25.2129107 1759.14286,29 C1759.14286,32.7870893 1762.21291,35.8571429 1766,35.8571429 C1769.78709,35.8571429 1772.85714,32.7870893 1772.85714,29 C1772.85714,25.2129107 1769.78709,22.1428571 1766,22.1428571 L1766,22.1428571 Z M1765.28571,25.1428571 C1765.28571,25.5373462 1765.60551,25.8571429 1766,25.8571429 C1766.39449,25.8571429 1766.71429,25.5373462 1766.71429,25.1428571 C1766.71429,24.748368 1766.39449,24.4285714 1766,24.4285714 C1765.60551,24.4285714 1765.28571,24.748368 1765.28571,25.1428571 L1765.28571,25.1428571 Z M1766,33.5714286 C1764.57143,33.5714286 1763.42857,32.4275 1763.42857,30.9976071 C1763.42857,30.737625 1763.65423,30.5296429 1763.91396,30.5296429 C1764.17371,30.5296429 1764.39936,30.737625 1764.39936,30.9976071 C1764.39936,31.8815357 1765.09093,32.5380714 1765.97404,32.5380714 C1766.85716,32.5380714 1767.54873,31.8815536 1767.54873,30.9976071 C1767.54873,30.2696429 1767.02112,29.7756786 1766.55359,29.4897143 C1765.61854,28.91775 1765.43586,28.1118036 1765.46184,27.6958393 L1765.46184,26.8875714 C1765.46184,26.6275893 1765.64323,26.4285714 1765.9397,26.4285714 C1766.23614,26.4285714 1766.41559,26.6276071 1766.41559,26.8875714 L1766.41559,27.7218393 C1766.41559,27.7478393 1766.38963,28.2937857 1767.09091,28.7097679 C1768.05195,29.2817143 1768.57143,30.1136607 1768.57143,31.0236071 C1768.57143,32.4535 1767.42857,33.5714286 1766,33.5714286 L1766,33.5714286 Z" id="top_ico_help" transform="translate(1766.000000, 29.000000) scale(1, -1) translate(-1766.000000, -29.000000) "></path>
        </g>
    </g>
</svg>