<?xml version="1.0" encoding="UTF-8"?>
<svg width="20px" height="20px" viewBox="0 0 20 20" version="1.1" xmlns="http://www.w3.org/2000/svg" xmlns:xlink="http://www.w3.org/1999/xlink">
    <!-- Generator: Sketch 52.5 (67469) - http://www.bohemiancoding.com/sketch -->
    <title>spot_slice</title>
    <desc>Created with Sketch.</desc>
    <g id="Page-1" stroke="none" stroke-width="1" fill="none" fill-rule="evenodd">
        <g id="画板" transform="translate(-53.000000, -11.000000)" fill="#5B7897" fill-rule="nonzero">
            <g id="spot" transform="translate(58.000000, 15.000000)">
                <path d="M5,1 C2.27272727,1 0,2.93025872 0,5.35545557 C0,8.37457818 3.57954545,11.1462317 4.65909091,11.8886389 C4.88636364,12.0371204 5.11363636,12.0371204 5.34090909,11.8886389 C6.42045455,11.1462317 10,8.37457818 10,5.35545557 C10,2.93025872 7.72727273,1 5,1 Z M5,7.18672666 C3.86363636,7.18672666 2.89772727,6.34533183 2.89772727,5.35545557 C2.89772727,4.3655793 3.86363636,3.52418448 5,3.52418448 C6.13636364,3.52418448 7.10227273,4.3655793 7.10227273,5.35545557 C7.10227273,6.34533183 6.13636364,7.18672666 5,7.18672666 Z" id="Shape"></path>
            </g>
        </g>
    </g>
</svg>