<?xml version="1.0" encoding="UTF-8"?>
<svg width="20px" height="20px" viewBox="0 0 20 20" version="1.1" xmlns="http://www.w3.org/2000/svg" xmlns:xlink="http://www.w3.org/1999/xlink">
    <!-- Generator: Sketch 52.5 (67469) - http://www.bohemiancoding.com/sketch -->
    <title>tool_advance_slice</title>
    <desc>Created with Sketch.</desc>
    <g id="Page-1" stroke="none" stroke-width="1" fill="none" fill-rule="evenodd">
        <g id="画板" transform="translate(-12.000000, -4.000000)" fill="#23374D" fill-rule="nonzero">
            <g id="tool_advance" transform="translate(16.000000, 8.000000)">
                <path d="M7.61241334,5.4894653 L1.01657224,0.138665815 C0.827284045,-0.014847956 0.570178636,-0.043272437 0.35357517,0.0652759267 C0.137285682,0.173812302 0,0.400331845 0,0.648625874 L0,11.3503689 C0,11.5986869 0.137285682,11.8251945 0.353586807,11.9337428 C0.441032886,11.9775079 0.5349095,11.9989703 0.628169807,11.9989703 C0.766525307,11.9989703 0.903671455,11.9518682 1.01657224,11.8603409 L7.61241333,6.50938542 C7.7639904,6.38643276 7.85249467,6.19839669 7.85249467,5.99943736 C7.85249467,5.80037 7.76399041,5.61241796 7.61241334,5.4894653 Z M1.25663032,10.0157389 L1.25663032,1.98325583 L6.20729911,5.99942536 L1.25663032,10.0157389 Z M10.9956345,0.912188466 L10.9956345,11.2147524 C10.9956345,11.6177366 10.679189,11.944402 10.2887981,11.944402 C9.89838397,11.944402 9.58191523,11.6177366 9.58191523,11.2147524 L9.58191522,0.912188466 C9.58191522,0.509192302 9.89838395,0.182526894 10.2887981,0.182526894 C10.679189,0.182526894 10.9956345,0.509204302 10.9956345,0.912188466 Z" id="形状"></path>
            </g>
        </g>
    </g>
</svg>