<?xml version="1.0" encoding="UTF-8"?>
<svg width="20px" height="20px" viewBox="0 0 20 20" version="1.1" xmlns="http://www.w3.org/2000/svg" xmlns:xlink="http://www.w3.org/1999/xlink">
    <!-- Generator: Sketch 52.5 (67469) - http://www.bohemiancoding.com/sketch -->
    <title>community_slice</title>
    <desc>Created with Sketch.</desc>
    <g id="Page-1" stroke="none" stroke-width="1" fill="none" fill-rule="evenodd">
        <g id="画板" transform="translate(-5.000000, -5.000000)" fill="#23374D" fill-rule="nonzero">
            <path d="M9.99940568,15.5186788 L9.99940568,19.9822278 C9.99940568,20.4816902 10.4998236,20.9805103 10.9998451,20.9805103 L18.99956,20.9805103 C19.4999506,20.9805103 19.9999721,20.4816902 19.9999721,19.9822278 L19.9999721,15.5186788 L14.9994838,11.1755535 L9.99940568,15.5186788 Z M16.4995072,16.9867517 L16.4995072,19.482779 L13.4998705,19.482779 L13.4998705,16.9867517 C13.4998705,16.4358724 13.9480209,15.9884419 14.4998861,15.9884419 L15.5002846,15.9884419 C16.051726,15.9884419 16.4995072,16.4358724 16.4995072,16.9867517 Z M21.9664799,15.1450251 C21.892351,15.3526606 21.6977318,15.4894032 21.4796381,15.4894032 L20.7288471,15.4894032 L14.9994838,10.5142688 L9.27092716,15.4894032 L8.52012247,15.4894032 C8.30201505,15.4894032 8.10743693,15.3526606 8.033267,15.1450251 C7.95630802,14.9381276 8.01572599,14.7067654 8.18200333,14.5638314 L14.2745736,9.26825057 C14.4807182,9.08887927 14.7402924,9 14.9994838,9 C15.259058,9 15.5186322,9.08889294 15.7247631,9.26825057 L17.4995092,10.8108246 L17.4995092,9.99768109 C17.4995092,9.72265148 17.7236049,9.49903872 17.999517,9.49903872 L18.4995248,9.49903872 C18.7754369,9.49903872 18.9995326,9.72265148 18.9995326,9.99768109 L18.9995326,12.1140683 L21.8173471,14.5638314 C21.9828315,14.7067654 22.0430287,14.9381276 21.9664799,15.1450251 Z" id="community"></path>
        </g>
    </g>
</svg>