<?xml version="1.0" encoding="UTF-8"?>
<svg width="20px" height="20px" viewBox="0 0 20 20" version="1.1" xmlns="http://www.w3.org/2000/svg" xmlns:xlink="http://www.w3.org/1999/xlink">
    <!-- Generator: Sketch 52.5 (67469) - http://www.bohemiancoding.com/sketch -->
    <title>manage_slice</title>
    <desc>Created with Sketch.</desc>
    <g id="Page-1" stroke="none" stroke-width="1" fill="none" fill-rule="evenodd">
        <g id="画板" transform="translate(-12.000000, -12.000000)">
            <g id="manage" transform="translate(12.000000, 12.000000)">
                <rect id="Selected-Copy" fill="#F05C34" x="0" y="0" width="20" height="20"></rect>
                <g transform="translate(4.666667, 5.333333)" fill="#FFFFFF">
                    <path d="M10.5883329,3.81452276 C10.5638228,3.66681782 10.4290177,3.55887959 10.2697025,3.54751768 C9.69371677,3.51343192 9.18513366,3.21802203 8.8971408,2.75786432 C8.60914795,2.29770661 8.59076543,1.73529163 8.84812074,1.25809106 C8.91552332,1.127429 8.88488579,0.968362135 8.76233564,0.871785824 C8.29051756,0.508204429 7.75742442,0.218475496 7.16918371,0.0196419174 C7.02212352,-0.0314867206 6.85055331,0.0196419174 6.76476822,0.144623026 C6.44613783,0.587737855 5.91304468,0.849061983 5.33705898,0.849061983 C4.76720079,0.849061983 4.23410764,0.58205689 3.91547725,0.144623026 C3.82969215,0.0196419174 3.65812194,-0.0258057557 3.51106177,0.0196419174 C2.92282105,0.218475496 2.3836004,0.50820442 1.91790982,0.871785824 C1.79535968,0.968362135 1.75859463,1.127429 1.83212473,1.25809106 C2.08948004,1.73529164 2.06497001,2.29770662 1.78310467,2.75786432 C1.49511182,3.21802203 0.986528698,3.51343191 0.410543002,3.54751768 C0.251227812,3.5588796 0.122550149,3.66681782 0.091912612,3.81452276 C0.0306375373,4.1156136 7.10542736e-14,4.39398062 7.10542736e-14,4.66666667 C7.10542736e-14,4.93935271 0.0306375373,5.21771973 0.0857851084,5.51881057 C0.110295142,5.66651551 0.245100299,5.77445374 0.404415489,5.78581566 C0.980401185,5.81990141 1.4889843,6.1153113 1.77697716,6.57546901 C2.06497001,7.03562672 2.08335253,7.5980417 1.82599721,8.07524227 C1.75859463,8.20590434 1.78923217,8.3649712 1.91178232,8.46154751 C2.3836004,8.8251289 2.91669354,9.11485784 3.50493425,9.31369141 C3.65199444,9.36482005 3.82356464,9.31369141 3.90934975,9.18871031 C4.22798014,8.74559548 4.76107328,8.48427135 5.33093148,8.48427135 C5.90078967,8.48427135 6.43388282,8.74559548 6.7525132,9.18871031 C6.81991578,9.27960565 6.92408341,9.33073429 7.04050605,9.33073429 C7.07727109,9.33073429 7.12016365,9.32505334 7.15692869,9.31369141 C7.7451694,9.11485784 8.28439006,8.83080987 8.75008063,8.46154751 C8.87263078,8.3649712 8.90939582,8.20590434 8.83586573,8.07524227 C8.58463793,7.59804169 8.60302045,7.03562671 8.88488579,6.57546901 C9.17287864,6.11531131 9.68146176,5.81990142 10.2574475,5.78581566 C10.4167626,5.77445374 10.5454403,5.66651551 10.5760778,5.52449153 C10.6312254,5.22340068 10.661863,4.94503367 10.661863,4.67234762 C10.674118,4.39398062 10.6434804,4.1156136 10.5883329,3.81452276 M9.94494458,5.17795301 C9.25866374,5.29725315 8.65816802,5.68355839 8.30277259,6.25165433 C7.94737716,6.81975026 7.88610208,7.50146538 8.11894736,8.10932803 C7.82482701,8.31384257 7.50619662,8.48427135 7.1630562,8.62061438 C6.70962065,8.12637091 6.04172234,7.84232295 5.33705898,7.84232294 C4.62626812,7.84232294 3.96449731,8.13205187 3.51106177,8.62061438 C3.16792135,8.48427135 2.84929096,8.31384258 2.55517061,8.10932803 C2.78801589,7.49578442 2.72674081,6.81975026 2.37134538,6.25165433 C2.01594995,5.68355839 1.41545422,5.2915722 0.729173382,5.17795301 C0.704663349,5.00184327 0.692408342,4.83141449 0.692408342,4.66666667 C0.692408342,4.50191884 0.704663359,4.33149007 0.729173382,4.15538032 C1.41545422,4.03608018 2.02207745,3.64977494 2.37134538,3.08167901 C2.72674081,2.51358307 2.78801589,1.83186795 2.55517061,1.21832434 C2.84929096,1.01380981 3.16792135,0.843381027 3.51106177,0.707037998 C3.96449731,1.20128147 4.63239563,1.49101039 5.33705898,1.49101039 C6.04784984,1.49101039 6.70962065,1.20128147 7.1630562,0.707037998 C7.50619662,0.843381027 7.82482701,1.0138098 8.11894736,1.21832434 C7.88610208,1.83186795 7.94737716,2.50790211 8.30277259,3.08167901 C8.65816802,3.64977494 9.25866375,4.04176113 9.94494458,4.16106129 C9.96945461,4.33717102 9.98170962,4.50759981 9.98170962,4.67234762 C9.98170962,4.83141448 9.9694546,5.00184326 9.94494458,5.17795301" id="形状" fill-rule="nonzero"></path>
                    <path d="M5.33705898,2.75218336 C4.19734259,2.75218336 3.27208897,3.61000823 3.27208897,4.66666667 C3.27208897,5.72332511 4.19734259,6.58114997 5.33705898,6.58114997 C5.56377676,6.58114997 5.78436702,6.54706422 5.99882978,6.4788927 C6.1765275,6.42208311 6.27456762,6.24029241 6.21329254,6.07554459 C6.15201747,5.91079676 5.95593723,5.81990142 5.77823952,5.87671101 C5.63730685,5.92215868 5.49024667,5.94488253 5.33705898,5.94488252 C4.57724806,5.94488252 3.96449731,5.37110562 3.96449731,4.67234762 C3.96449731,3.96790867 4.58337556,3.39981273 5.33705898,3.39981273 C6.0968699,3.39981273 6.70962065,3.97358962 6.70962065,4.67234762 C6.70962065,4.76892393 6.69736563,4.85981928 6.67898311,4.95071464 C6.66672809,4.99616231 6.65447307,5.03592903 6.64221807,5.07569574 C6.58094299,5.24044357 6.67898311,5.42223426 6.86280833,5.47904386 C7.04663356,5.53585345 7.23658628,5.4449581 7.29786136,5.27452932 C7.32237139,5.21203877 7.34075391,5.14954821 7.35300893,5.0813767 C7.38364647,4.95071464 7.40202899,4.80869065 7.40202899,4.66666667 C7.40202899,3.61000823 6.47677536,2.75218336 5.33705898,2.75218336" id="路径"></path>
                </g>
            </g>
        </g>
    </g>
</svg>