<?xml version="1.0" encoding="UTF-8"?>
<svg width="20px" height="20px" viewBox="0 0 20 20" version="1.1" xmlns="http://www.w3.org/2000/svg" xmlns:xlink="http://www.w3.org/1999/xlink">
    <!-- Generator: Sketch 52.5 (67469) - http://www.bohemiancoding.com/sketch -->
    <title>top_ico_news_slice</title>
    <desc>Created with Sketch.</desc>
    <g id="Page-1" stroke="none" stroke-width="1" fill="none" fill-rule="evenodd">
        <g id="画板" transform="translate(3.000000, 3.000000)" fill="#23374D" fill-rule="nonzero">
            <path d="M12.3197422,12.243 L8.62625489,12.243 L7.10966187,13.8273333 C7.0093334,13.937 6.86700699,14 6.7176809,14 C6.5660216,13.9976667 6.42136195,13.937 6.31636705,13.8273333 L4.79977403,12.243 L1.68025884,12.243 C0.735304724,12.2243333 -0.0159921316,11.4426667 0.000340413158,10.4976667 L0.000340413158,1.74766666 C-0.0183253426,0.800333338 0.732971513,0.0186666621 1.68025884,0 L12.3197422,0 C13.2646963,0.0186666621 14.0159932,0.800333338 13.9996606,1.74533334 L13.9996606,10.4953333 C14.0183264,11.4426667 13.2646963,12.2243333 12.3197422,12.243 Z M12.8353838,1.74533334 C12.8307174,1.42566668 12.57173,1.16666668 12.2520788,1.162 L1.74792223,1.162 C1.42827109,1.16666666 1.16928366,1.42566666 1.16461722,1.74533334 L1.16461722,10.4953333 C1.16928365,10.815 1.42827107,11.074 1.74792223,11.0786667 L5.13342449,11.0786667 C5.37607937,11.0833333 5.5884024,11.2466667 5.658399,11.48 L6.7176809,12.586 L8.00561836,11.2513333 C8.11061326,11.144 8.2552729,11.081 8.4069322,11.0786667 L12.2614117,11.0786667 C12.5810628,11.074 12.8400503,10.815 12.8447167,10.4953333 L12.8447167,1.74533334 L12.8353838,1.74533334 Z M10.2105113,6.99533334 C9.72520152,6.99533334 9.33322056,6.60333334 9.33322056,6.118 C9.33322056,5.63266666 9.72520152,5.24066666 10.2105113,5.24066666 C10.6958211,5.24066666 11.087802,5.63266666 11.087802,6.118 C11.087802,6.601 10.6981543,6.993 10.2128445,6.99533334 L10.2105113,6.99533334 Z M7.29165303,6.99533334 C6.80634326,7 6.40969586,6.61266668 6.40502941,6.12733334 C6.40036297,5.642 6.78767749,5.24533334 7.27298726,5.24066666 C7.75829703,5.236 8.15494444,5.62333332 8.15961088,6.10866666 L8.15961088,6.118 C8.16194411,6.59866666 7.77229635,6.993 7.29165303,6.99533334 Z M4.37046154,6.99533334 C3.887485,6.993 3.50017047,6.59866668 3.50250369,6.118 C3.50483691,5.635 3.89915109,5.24766666 4.37979443,5.25 C4.86277097,5.25233334 5.25008551,5.64666666 5.24775228,6.12733334 C5.24541906,6.608 4.85110488,6.99533334 4.37046154,6.99533334 Z" id="top_ico_news"></path>
        </g>
    </g>
</svg>