<?xml version="1.0" encoding="UTF-8"?>
<svg width="20px" height="20px" viewBox="0 0 20 20" version="1.1" xmlns="http://www.w3.org/2000/svg" xmlns:xlink="http://www.w3.org/1999/xlink">
    <!-- Generator: Sketch 52.5 (67469) - http://www.bohemiancoding.com/sketch -->
    <title>top_ico_notice_slice</title>
    <desc>Created with Sketch.</desc>
    <g id="Page-1" stroke="none" stroke-width="1" fill="none" fill-rule="evenodd">
        <g id="画板" transform="translate(3.000000, 2.000000)" fill="#23374D" fill-rule="nonzero">
            <path d="M11.6627973,12.5715 L11.6627973,6.857 C11.6627973,4.343 9.56362642,2.2855 6.99757631,2.2855 C4.43203645,2.2855 2.33235535,4.343 2.33235535,6.857 L2.33235535,12.5715 L1.1664328,12.5715 L1.1664328,6.857 C1.1664328,3.657 3.73197267,1.143 6.99757631,1.143 C10.26318,1.143 12.8292301,3.657 12.8292301,6.857 L12.8292301,12.5715 L11.6627973,12.5715 Z M8.16400911,1.257 C10.8463964,1.8285 12.8292301,4.1145 12.8292301,6.857 L12.8292301,12.5715 L13.9956629,12.5715 L13.9956629,13.7145 L9.33044191,13.7145 C9.32651821,14.9753458 8.2842717,15.9964309 6.99757631,16 C5.71108018,15.9961565 4.66914323,14.9751513 4.66522096,13.7145 L0,13.7145 L0,12.5715 L1.1664328,12.5715 L1.1664328,6.857 C1.1664328,4.1145 3.14875626,1.8285 5.83165376,1.257 L5.83165376,1.143 C5.83165376,0.457 6.29802278,0 6.99757631,0 C7.69764009,0 8.16400911,0.457 8.16400911,1.257 C8.16400911,1.143 8.16400911,1.257 8.16400911,1.257 Z M5.83165376,13.715 C5.83165376,14.4005 6.29802278,14.8575 6.99757631,14.8575 C7.69764009,14.8575 8.16400911,14.4005 8.16400911,13.715 L5.83165376,13.715 Z M2.3318451,12.5715 L11.662287,12.5715 L11.662287,6.857 C11.662287,4.343 9.56311617,2.2855 6.99706606,2.2855 C4.4315262,2.2855 2.3318451,4.343 2.3318451,6.857 L2.3318451,12.5715 Z M5.83216401,3.3145 L6.41487016,4.343 C5.36528474,4.9145 4.78206834,5.6 4.78206834,6.2855 L3.61563554,6.2855 C3.61563554,5.143 4.43203645,4.1145 5.83165376,3.3145 L5.83216401,3.3145 Z" id="top_ico_notice"></path>
        </g>
    </g>
</svg>