<?xml version="1.0" encoding="UTF-8"?>
<svg width="20px" height="20px" viewBox="0 0 20 20" version="1.1" xmlns="http://www.w3.org/2000/svg" xmlns:xlink="http://www.w3.org/1999/xlink">
    <!-- Generator: Sketch 52.5 (67469) - http://www.bohemiancoding.com/sketch -->
    <title>tool_line_slice</title>
    <desc>Created with Sketch.</desc>
    <g id="Page-1" stroke="none" stroke-width="1" fill="none" fill-rule="evenodd">
        <g id="画板" transform="translate(-11.000000, -1.000000)">
            <g id="tool_line" transform="translate(14.000000, 6.000000)">
                <polygon id="路径" fill="#90A0AF" points="9.84774665 9.05067568 5.12423873 2.02702703 1.74957369 8.72466216 1.13909866 8.42398649 5.03897686 0.682432432 9.71473812 7.63513514 12.391961 1.43074324 13.0194884 1.69763514"></polygon>
                <path d="M0.00852618758,8.57432432 C0.00852617677,9.08246221 0.282190012,9.55200099 0.726431173,9.80606994 C1.17067233,10.0601389 1.71800002,10.0601389 2.16224118,9.80606994 C2.60648234,9.55200099 2.88014617,9.08246221 2.88014616,8.57432432 C2.88014617,8.06618644 2.60648233,7.59664766 2.16224118,7.34257872 C1.71800002,7.08850977 1.17067233,7.08850977 0.726431175,7.34257872 C0.282190016,7.59664766 0.00852617993,8.06618644 0.00852618758,8.57432432 Z" id="路径" fill="#5B7897"></path>
                <path d="M11.2323995,1.74831081 C11.2323995,2.50210486 11.8492759,3.11317568 12.6102314,3.11317568 C13.371187,3.11317568 13.9880633,2.50210486 13.9880633,1.74831081 C13.9880633,0.99451676 13.371187,0.383445946 12.6102314,0.383445946 C11.8492759,0.383445946 11.2323995,0.99451676 11.2323995,1.74831081 Z" id="路径" fill="#5B7897"></path>
                <path d="M3.72935445,1.35472973 C3.72935444,1.83329665 3.98709247,2.27551072 4.40548111,2.51479419 C4.82386976,2.75407765 5.33934583,2.75407765 5.75773448,2.51479419 C6.17612312,2.27551072 6.43386116,1.83329665 6.43386114,1.35472973 C6.43386114,0.614929381 5.8284367,0.0152027027 5.0816078,0.0152027027 C4.33477889,0.0152027027 3.72935445,0.614929381 3.72935445,1.35472973 Z" id="路径" fill="#5B7897"></path>
                <path d="M8.30791717,8.34290541 C8.30791716,8.86432006 8.58873135,9.34612708 9.04457977,9.60683441 C9.50042818,9.86754174 10.0620566,9.86754174 10.517905,9.60683441 C10.9737534,9.34612708 11.2545676,8.86432006 11.2545676,8.34290541 C11.2545676,7.82149075 10.9737534,7.33968373 10.517905,7.0789764 C10.0620566,6.81826907 9.50042818,6.81826907 9.04457977,7.0789764 C8.58873135,7.33968373 8.30791716,7.82149075 8.30791717,8.34290541 Z" id="路径" fill="#5B7897"></path>
            </g>
        </g>
    </g>
</svg>