<?xml version="1.0" encoding="utf-8"?>
<!DOCTYPE svg PUBLIC "-//W3C//DTD SVG 1.1//EN" "http://www.w3.org/Graphics/SVG/1.1/DTD/svg11.dtd">
<svg width="30px" height="30px" viewBox="0 0 30 30" version="1.1" xmlns="http://www.w3.org/2000/svg">
  <g stroke="none" stroke-width="1" fill="none" fill-rule="evenodd" transform="matrix(0.666667, 0, 0, 0.666667, 0, 0)">
    <g transform="translate(-7.000000, -7.000000)">
      <g transform="translate(7.000000, 7.000000)">
        <rect id="Selected-Copy" fill="#62B7ED" x="0" y="0" width="30" height="30"/>
        <g transform="translate(9.000000, 9.000000)" fill="#FFFFFF">
          <path d="M12,10.2123881 L12,10.7811737 C12,11.4515282 11.46,12 10.8,12 L1.2,12 C0.54,12 0,11.4515282 0,10.7811737 L0,10.2123881 C0,8.72948279 1.7,7.83567684 3.3,7.12469484 C3.36,7.10438107 3.4,7.0840673 3.46,7.04343976 C3.58,6.98249844 3.72,6.98249844 3.84,7.06375353 C4.48,7.49034273 5.22,7.73410799 6,7.73410799 C6.78,7.73410799 7.52,7.49034273 8.16,7.0840673 C8.28,7.00281221 8.42,7.00281221 8.54,7.06375353 C8.6,7.0840673 8.64,7.10438107 8.7,7.14500861 C10.3,7.83567684 12,8.72948279 12,10.2123881"/>
          <path d="M6,0 C7.65684564,0 9,1.34309091 9,3 C9,4.65690909 7.65684564,6 6,6 C4.34315436,6 3,4.65690909 3,3 C3,1.34309091 4.34315436,0 6,0" id="Fill-3"/>
        </g>
      </g>
    </g>
  </g>
</svg>