<?xml version="1.0" encoding="UTF-8"?>
<svg width="20px" height="20px" viewBox="0 0 20 20" version="1.1" xmlns="http://www.w3.org/2000/svg" xmlns:xlink="http://www.w3.org/1999/xlink">
    <!-- Generator: Sketch 52.5 (67469) - http://www.bohemiancoding.com/sketch -->
    <title>lock_slice</title>
    <desc>Created with Sketch.</desc>
    <g id="Page-1" stroke="none" stroke-width="1" fill="none" fill-rule="evenodd">
        <g id="画板" transform="translate(-171.000000, -12.000000)">
            <g id="lock" transform="translate(176.000000, 16.000000)">
                <path d="M1.06703398,4.15064327 C1.17926098,4.15224254 1.28751384,4.10834389 1.36797259,4.02860676 C1.44843135,3.94886964 1.49450353,3.8398274 1.49605142,3.72547368 C1.82063292,2.25178836 3.00182718,1.13360853 4.46804569,0.912029569 C5.9342642,0.690450604 7.38311897,1.41117021 8.11349862,2.72542691 C8.17644238,2.87535744 8.31800012,2.97539477 8.4778696,2.98292397 C8.63908994,2.99180068 8.79086752,2.90510942 8.86756347,2.76034135 C8.94425942,2.61557327 8.93210774,2.43871252 8.83636364,2.30624561 C7.93153546,0.668516406 6.12367594,-0.224408608 4.3014229,0.0663802021 C2.47916987,0.357169013 1.02577711,1.77051334 0.655647383,3.6116959 L0.655647383,3.66559064 C0.643237812,3.78859926 0.684000506,3.91101832 0.767309463,4.00093568 C0.841493596,4.09236633 0.950666776,4.14689658 1.06703398,4.15064327 Z M9.15959596,4.58180116 L0.843709821,4.58180116 C0.621357456,4.58179555 0.408196713,4.67220616 0.251522487,4.8329732 C0.0948482613,4.99374024 0.00761687804,5.21156892 0.00918274105,5.43812866 L0.00918274105,11.1389941 C0.00761687804,11.3655539 0.0948482613,11.5833826 0.251522487,11.7441496 C0.408196713,11.9049166 0.621357456,11.9953273 0.843709821,11.9953216 L9.15959596,11.9953216 C9.38092803,11.993739 9.59257729,11.9026286 9.74798051,11.7420348 C9.90338374,11.581441 9.98981027,11.3645198 9.9882461,11.1389941 L9.9882461,5.43812866 C9.98981027,5.21260301 9.90338374,4.99568177 9.74798051,4.83508799 C9.59257729,4.67449421 9.38092803,4.58338378 9.15959596,4.58180116 Z" id="形状" fill="#FF4C44" fill-rule="nonzero"></path>
                <path d="M5.13976125,6.60584796 C4.68563632,6.61243013 4.2952613,6.93563557 4.19599778,7.3872235 C4.09673426,7.83881143 4.31451385,8.30080901 4.7224977,8.50414035 L4.7224977,9.6 C4.7224977,9.83481468 4.90931295,10.0251696 5.13976125,10.0251696 C5.37020954,10.0251696 5.55702479,9.83481468 5.55702479,9.6 L5.55702479,8.50414035 C5.96500864,8.30080901 6.18278823,7.83881143 6.08352472,7.38722351 C5.9842612,6.93563558 5.59388618,6.61243013 5.13976125,6.60584796 Z" id="路径" fill="#FFFFFF"></path>
            </g>
        </g>
    </g>
</svg>