<?xml version="1.0" encoding="UTF-8"?>
<svg width="20px" height="20px" viewBox="0 0 20 20" version="1.1" xmlns="http://www.w3.org/2000/svg" xmlns:xlink="http://www.w3.org/1999/xlink">
    <!-- Generator: Sketch 52.5 (67469) - http://www.bohemiancoding.com/sketch -->
    <title>tool_line_division_slice</title>
    <desc>Created with Sketch.</desc>
    <g id="Page-1" stroke="none" stroke-width="1" fill="none" fill-rule="evenodd">
        <g id="画板" transform="translate(-11.000000, -2.000000)" fill-rule="nonzero">
            <g id="tool_line_division" transform="translate(14.000000, 8.000000)">
                <path d="M0.999574378,0 L2.99872313,0 C3.55139391,0 3.99829751,0.404958678 3.99829751,0.902748414 C3.99829751,1.40188353 3.54990423,1.80549683 2.99872313,1.80549683 L0.999574378,1.80549683 C0.446903597,1.80549683 7.10542736e-15,1.40053815 7.10542736e-15,0.902748414 C7.10542736e-15,0.404958678 0.448393275,3.82379331e-16 0.999574378,0 Z M0.500532028,5.41918124 L13.499468,5.41918124 C13.7750585,5.41918124 14,5.77204257 14,6.20959062 C14,6.64478626 13.7765482,7 13.499468,7 L0.500532028,7 C0.224941477,7 0,6.64713867 0,6.20959062 C0,5.77204257 0.224941477,5.41918124 0.500532028,5.41918124 Z M6.00042562,0 L7.99957438,0 C8.55224516,0 8.99914876,0.404958678 8.99914876,0.902748414 C8.99914876,1.40188353 8.55224516,1.80549683 7.99957438,1.80549683 L6.00042562,1.80549683 C5.44775484,1.80549683 5.00085124,1.40053815 5.00085124,0.902748414 C5.00085124,0.404958678 5.44775484,3.82379331e-16 6.00042562,0 Z" id="形状" fill="#5B7897"></path>
                <path d="M10.9997872,0 L12.9989359,0 C13.5516067,0 13.9985103,0.404958678 13.9985103,0.902748414 C13.9985103,1.40188353 13.550117,1.80549683 12.9989359,1.80549683 L10.9997872,1.80549683 C10.4471164,1.80549683 10.0002128,1.40053815 10.0002128,0.902748414 C10.0002128,0.404958678 10.4471164,3.82379331e-16 10.9997872,0 Z" id="路径" fill="#6DD401"></path>
            </g>
        </g>
    </g>
</svg>