<?xml version="1.0" encoding="UTF-8"?>
<svg width="20px" height="20px" viewBox="0 0 20 20" version="1.1" xmlns="http://www.w3.org/2000/svg" xmlns:xlink="http://www.w3.org/1999/xlink">
    <!-- Generator: Sketch 52.5 (67469) - http://www.bohemiancoding.com/sketch -->
    <title>tool_division_slice</title>
    <desc>Created with Sketch.</desc>
    <g id="Page-1" stroke="none" stroke-width="1" fill="none" fill-rule="evenodd">
        <g id="画板" transform="translate(-11.000000, -1.000000)">
            <g id="tool_division" transform="translate(14.000000, 5.000000)">
                <polygon id="路径" fill="#6DD401" points="10.7636962 0.318075315 10.7619374 0.320980358 10.576719 0.00588580051 10.3562605 0.00588580051 10.3564843 0.00533619437 3.72617966 0.00533619437 3.72662734 0.00588580051 3.77921569 0.00588580051 7.19302913 5.81478419 13.9914278 5.81478419 13.9952492 5.81478419"></polygon>
                <path d="M13.0687823,6.77407165 L13.9438684,6.77349745 L13.5126261,6.01989751 L13.0687823,6.77407165 Z M10.2906364,11.4946638 L10.2655796,11.53724 L10.1456396,11.7413447 L10.576719,11.9946638 L10.576719,11.4946638 L10.2906364,11.4946638 Z M3.81492739,11.4946638 L3.52887342,11.4946638 L3.95990236,11.7412589 L3.81492739,11.4946638 Z M0.586195167,6.00275398 L0.559455206,5.95727066 L0.931555143,5.32429623 L0.0570245743,5.32481844 L0.0573231406,5.82481835 L0.180261896,5.89708905 L0.00473479688,6.00028266 L0.43359416,6.25734228 L0.586195167,6.00275398 Z M3.33214736,1.24067963 L3.35628783,1.19961458 L3.38234388,1.24448136 L3.81604877,0.506978488 L3.38505094,0.25352067 L3.35859664,0.268883812 L3.33246259,0.25352067 L2.90126294,0.50663499 L3.33214736,1.24067963 Z" id="路径" stroke="#5B7897" fill="#C7D2E1"></path>
            </g>
        </g>
    </g>
</svg>