<?xml version="1.0" encoding="UTF-8"?>
<svg width="20px" height="20px" viewBox="0 0 20 20" version="1.1" xmlns="http://www.w3.org/2000/svg" xmlns:xlink="http://www.w3.org/1999/xlink">
    <!-- Generator: Sketch 52.5 (67469) - http://www.bohemiancoding.com/sketch -->
    <title>tool_plane_buffer_slice</title>
    <desc>Created with Sketch.</desc>
    <g id="Page-1" stroke="none" stroke-width="1" fill="none" fill-rule="evenodd">
        <g id="画板" transform="translate(-11.000000, -1.000000)" fill-rule="nonzero">
            <g id="tool_plane_buffer" transform="translate(14.000000, 4.000000)">
                <g id="huanchongquchaxun">
                    <path d="M7,13.995082 C6.85245902,13.995082 6.70327869,13.9901639 6.55737705,13.9819672 C6.17213115,13.957377 5.87868852,13.6262295 5.90327869,13.2409836 C5.92786885,12.8557377 6.25901639,12.5622951 6.6442623,12.5868852 C6.76229508,12.5934426 6.88196721,12.5983607 7,12.5983607 C7.41639344,12.5983607 7.83114754,12.552459 8.23278689,12.4622951 C8.60983607,12.3770492 8.98360656,12.6147541 9.06885246,12.9918033 C9.15409836,13.3688525 8.91639344,13.742623 8.53934426,13.8278689 C8.03770492,13.9377049 7.51967213,13.995082 7,13.995082 Z M3.34754098,12.8278689 C3.20655738,12.8278689 3.06557377,12.7852459 2.94262295,12.6983607 C2.52131148,12.3983607 2.13278689,12.0508197 1.78852459,11.6639344 C1.53114754,11.3754098 1.5557377,10.9344262 1.84262295,10.6770492 C2.13114754,10.4196721 2.57213115,10.4442623 2.8295082,10.7311475 C3.10655738,11.0393443 3.41803279,11.3180328 3.75409836,11.5590164 C4.06885246,11.7836066 4.14098361,12.2196721 3.91803279,12.5344262 C3.78032787,12.7262295 3.56557377,12.8278689 3.34754098,12.8278689 Z M11.4163934,12.1852459 C11.2360656,12.1852459 11.0540984,12.1147541 10.9180328,11.9770492 C10.647541,11.7016393 10.6508197,11.2590164 10.9262295,10.9885246 C11.2213115,10.6983607 11.4852459,10.3737705 11.7098361,10.0262295 C11.9196721,9.70163934 12.352459,9.60819672 12.6770492,9.81639344 C13.0016393,10.0262295 13.095082,10.4590164 12.8868852,10.7836066 C12.6065574,11.2180328 12.2786885,11.6229508 11.9081967,11.9852459 C11.7704918,12.1196721 11.5934426,12.1852459 11.4163934,12.1852459 Z M0.798360656,8.79180328 C0.46557377,8.79180328 0.168852459,8.55245902 0.109836066,8.21311475 C0.0393442623,7.8147541 0.00491803279,7.40655738 0.00491803279,7 C0.00491803279,6.89016393 0.00819672131,6.77704918 0.0131147541,6.66721311 C0.031147541,6.28196721 0.359016393,5.98360656 0.744262295,6.00163934 C1.1295082,6.01967213 1.42786885,6.34754098 1.40983607,6.73278689 C1.40491803,6.82131148 1.40327869,6.91147541 1.40327869,7 C1.40327869,7.32622951 1.43114754,7.65409836 1.48688525,7.97213115 C1.55409836,8.35245902 1.29836066,8.7147541 0.918032787,8.78196721 C0.878688525,8.78852459 0.839344262,8.79180328 0.798360656,8.79180328 Z M13.295082,7.8 L13.2836066,7.8 C12.8967213,7.79344262 12.5885246,7.47540984 12.595082,7.09016393 L12.595082,7 C12.595082,6.61311475 12.5557377,6.22786885 12.4770492,5.85409836 C12.3983607,5.47540984 12.6409836,5.10491803 13.0196721,5.02622951 C13.3983607,4.94754098 13.7688525,5.19016393 13.847541,5.56885246 C13.9442623,6.03770492 13.995082,6.51803279 13.995082,7 C13.995082,7.03770492 13.995082,7.07377049 13.9934426,7.11147541 C13.9885246,7.49344262 13.6754098,7.8 13.295082,7.8 Z M1.81311475,4.1295082 C1.67540984,4.1295082 1.53770492,4.09016393 1.41639344,4.00655738 C1.09836066,3.78688525 1.01803279,3.35081967 1.23770492,3.03442623 C1.53114754,2.60819672 1.87377049,2.2147541 2.25245902,1.86393443 C2.53606557,1.60163934 2.97868852,1.61967213 3.24098361,1.90327869 C3.50327869,2.18688525 3.4852459,2.6295082 3.20163934,2.89180328 C2.89672131,3.17377049 2.62295082,3.48852459 2.38852459,3.8295082 C2.25409836,4.02295082 2.03606557,4.1295082 1.81311475,4.1295082 Z M11.5557377,3.3557377 C11.3704918,3.3557377 11.1868852,3.28360656 11.0491803,3.13934426 C10.7622951,2.83934426 10.442623,2.5704918 10.0983607,2.34098361 C9.77704918,2.12622951 9.69016393,1.69180328 9.90491803,1.3704918 C10.1196721,1.04918033 10.5540984,0.962295082 10.8754098,1.17704918 C11.304918,1.46393443 11.704918,1.8 12.0622951,2.17377049 C12.3295082,2.45409836 12.3180328,2.89672131 12.0393443,3.16229508 C11.9032787,3.29180328 11.7295082,3.3557377 11.5557377,3.3557377 Z M5.80819672,1.51639344 C5.47868852,1.51639344 5.18688525,1.28360656 5.12131148,0.949180328 C5.04918033,0.570491803 5.29672131,0.203278689 5.67704918,0.131147541 C6.10983607,0.0475409836 6.5557377,0.00655737705 7,0.00655737705 C7.07377049,0.00655737705 7.14918033,0.00819672131 7.22131148,0.00983606557 C7.60819672,0.0213114754 7.90983607,0.344262295 7.89836066,0.731147541 C7.88688525,1.11803279 7.56393443,1.41967213 7.17704918,1.40819672 C7.11803279,1.40655738 7.05737705,1.40491803 6.99836066,1.40491803 C6.64262295,1.40491803 6.2852459,1.43934426 5.93934426,1.50491803 C5.89508197,1.51311475 5.85081967,1.51639344 5.80819672,1.51639344 Z" id="形状" fill="#5B7897"></path>
                    <path d="M7,11.1967213 C5.87868852,11.1967213 4.82459016,10.7606557 4.03278689,9.96721311 C3.23934426,9.17377049 2.80327869,8.12131148 2.80327869,7 C2.80327869,5.87868852 3.23934426,4.82459016 4.03278689,4.03278689 C4.82622951,3.24098361 5.87868852,2.80327869 7,2.80327869 C8.12131148,2.80327869 9.17540984,3.23934426 9.96721311,4.03278689 C10.7606557,4.82622951 11.1967213,5.87868852 11.1967213,7 C11.1967213,8.12131148 10.7606557,9.17540984 9.96721311,9.96721311 C9.17540984,10.7606557 8.12131148,11.1967213 7,11.1967213 Z" id="路径" fill="#57A900"></path>
                </g>
            </g>
        </g>
    </g>
</svg>