<?xml version="1.0" encoding="UTF-8"?>
<svg width="20px" height="20px" viewBox="0 0 20 20" version="1.1" xmlns="http://www.w3.org/2000/svg" xmlns:xlink="http://www.w3.org/1999/xlink">
    <!-- Generator: Sketch 52.5 (67469) - http://www.bohemiancoding.com/sketch -->
    <title>tool_plane_separate_slice</title>
    <desc>Created with Sketch.</desc>
    <g id="Page-1" stroke="none" stroke-width="1" fill="none" fill-rule="evenodd">
        <g id="画板" transform="translate(-11.000000, -1.000000)">
            <g id="tool_plane_separate" transform="translate(14.000000, 4.000000)">
                <path d="M0.00473479688,10.4976286 L5.83411048,10.4976286 L5.83411048,3.50235541 L0.00473479688,3.50235541 L0.00473479688,10.4976286 Z M0.781983813,4.27960442 L5.05684545,4.27960442 L5.05684545,9.72036359 L0.781983813,9.72036359 L0.781983813,4.27960442 Z" id="形状" fill="#5B7897" fill-rule="nonzero"></path>
                <polygon id="路径" fill="#57A900" fill-rule="nonzero" points="8.16585755 3.50235541 8.16585755 10.4976286 13.9952492 10.4976286 13.9952492 3.50235541"></polygon>
                <path d="M7.77722505,0.781975828 C7.77722505,0.352746844 7.42960473,0.00472679687 6.99999202,0.00472679687 C6.57114677,0.00472679687 6.22274298,0.352746844 6.22274298,0.781975828 C6.22274298,1.06954086 6.37921289,1.32044275 6.61137548,1.45487959 L6.61137548,12.5451044 C6.37921289,12.6795413 6.22274298,12.9304592 6.22274298,13.2180082 C6.22274298,13.6472532 6.57114677,13.9952572 6.99999202,13.9952572 C7.42960473,13.9952572 7.77722505,13.6472372 7.77722505,13.2180082 C7.77722505,12.9303153 7.620963,12.6793014 7.38859255,12.5448966 L7.38859253,1.45508745 C7.62096298,1.32069856 7.77722505,1.06968475 7.77722505,0.781975828 Z" id="路径" fill="#5B7897"></path>
            </g>
        </g>
    </g>
</svg>